<mxfile host="app.diagrams.net" modified="2024-07-01T14:38:40.217Z" agent="Mozilla/5.0 (Windows NT 10.0; Win64; x64) AppleWebKit/537.36 (KHTML, like Gecko) Chrome/126.0.0.0 Safari/537.36" version="24.6.4" etag="Cc_px0liw8kbmpsYmTHd" type="github">
  <diagram name="Page-1" id="yxCxbt2SvlOyfm0d8JIN">
    <mxGraphModel>
      <root>
        <mxCell id="0" />
        <mxCell id="1" parent="0" />
      </root>
    </mxGraphModel>
  </diagram>
</mxfile>
